<?xml version="1.0" encoding="UTF-8"?>
<svg version="1.1" xmlns="http://www.w3.org/2000/svg" width="471" height="500">
<path d="M0 0 C0 165 0 330 0 500 C-14.52 500 -29.04 500 -44 500 C-44 358.76 -44 217.52 -44 72 C-55.22 77.61 -66.44 83.22 -78 89 C-89.625 94.5625 -89.625 94.5625 -95.07421875 97.1484375 C-102.23885712 100.57377243 -109.33802257 104.12975647 -116.4375 107.6875 C-117.1106424 108.02479126 -117.78378479 108.36208252 -118.47732544 108.70959473 C-123.31965759 111.13686291 -128.16003228 113.56802135 -133 116 C-138.51952687 118.77344236 -144.03985508 121.54527075 -149.5625 124.3125 C-150.23718323 124.65060196 -150.91186646 124.98870392 -151.60699463 125.33705139 C-159.80411954 129.44158987 -168.02691629 133.48254991 -176.3125 137.40625 C-185.85532596 141.92696673 -195.30967833 146.61387783 -204.75 151.34375 C-205.48888458 151.71391235 -206.22776917 152.08407471 -206.98904419 152.4654541 C-212.32746244 155.14078302 -217.66392997 157.81999123 -223 160.5 C-229.08203955 163.55466744 -235.16488359 166.60771568 -241.25 169.65625 C-241.98941708 170.02673965 -242.72883415 170.39722931 -243.49065781 170.77894592 C-253.05029288 175.56545582 -262.64698187 180.2565438 -272.31082153 184.82983398 C-280.5765899 188.75890104 -288.75489174 192.85485582 -296.9296875 196.96875 C-297.62031532 197.31602646 -298.31094315 197.66330292 -299.02249908 198.02110291 C-305.43137945 201.24386138 -311.83842878 204.47022925 -318.24072266 207.70605469 C-321.7918854 209.50054492 -325.34600941 211.28904959 -328.90204239 213.0738678 C-330.23546755 213.74456534 -331.56778644 214.41746764 -332.89889145 215.09275818 C-339.79892707 218.59256274 -346.55881545 221.80427353 -354 224 C-359.23622358 214.23810511 -364.36555747 204.44227903 -369.125 194.4375 C-369.51486084 193.6230542 -369.90472168 192.8086084 -370.30639648 191.96948242 C-370.66161377 191.21513916 -371.01683105 190.4607959 -371.3828125 189.68359375 C-371.69621582 189.01900146 -372.00961914 188.35440918 -372.33251953 187.66967773 C-373 186 -373 186 -373 184 C-359.83857053 177.40750164 -346.67593348 170.81741958 -333.51193142 164.23005962 C-327.39696765 161.17002118 -321.2823724 158.10925098 -315.16870117 155.04663086 C-309.24977907 152.08157234 -303.3297553 149.11872116 -297.4091053 146.15711403 C-295.16976676 145.03653308 -292.93077544 143.91525794 -290.69216728 142.79321861 C-279.82728688 137.34805224 -268.94852196 131.94628091 -257.96899414 126.7355957 C-243.79336118 120.00134469 -229.77927065 112.94502367 -215.75143433 105.90994835 C-211.90612818 103.9822036 -208.05945376 102.05719303 -204.21289062 100.13195801 C-194.47405163 95.25705088 -184.73692667 90.37872534 -175 85.5 C-164.47797413 80.22789762 -153.95562409 74.95644768 -143.4312973 69.68893957 C-139.62910411 67.78579068 -135.82733018 65.88181504 -132.02661133 63.97572327 C-117.69665888 56.78932011 -103.35885729 49.63622979 -88.87611771 42.76082897 C-80.59711991 38.82651638 -72.39743158 34.74434603 -64.2146225 30.61432838 C-61.70134876 29.34633654 -59.18626931 28.08198884 -56.67071533 26.81852722 C-49.54057678 23.23694818 -42.41246131 19.65138012 -35.28808594 16.05834961 C-30.88102474 13.83605259 -26.47109366 11.61954529 -22.05924225 9.40677452 C-20.39152624 8.56889411 -18.72492307 7.72879482 -17.05947113 6.88642311 C-14.75426362 5.72065176 -12.44549257 4.56225552 -10.13574219 3.40551758 C-9.45330444 3.05812027 -8.7708667 2.71072296 -8.06774902 2.35279846 C-5.17707452 0.91363449 -3.27573394 0 0 0 Z " fill="#535150" transform="translate(471,0)"/>
<path d="M0 0 C0 135.96 0 271.92 0 412 C-14.85 412 -29.7 412 -45 412 C-45.33 300.13 -45.66 188.26 -46 73 C-86.28003324 92.74371621 -86.28003324 92.74371621 -126.55496216 112.49783325 C-129.88948983 114.13400517 -133.22403533 115.77014076 -136.55859375 117.40625 C-137.65363724 117.94354233 -138.74868073 118.48083466 -139.87690735 119.03440857 C-146.83022552 122.44579197 -153.78451804 125.85518268 -160.73950195 129.26316833 C-165.49619714 131.59398094 -170.2525163 133.92556064 -175.0088501 136.2571106 C-177.24693695 137.35400224 -179.48517086 138.45059388 -181.72357178 139.54684448 C-193.7130339 145.41876885 -205.68096825 151.32961782 -217.61503601 157.31336975 C-223.79301227 160.40721565 -229.99787744 163.43351928 -236.25 166.375 C-242.57988429 169.370173 -248.8761311 172.42104329 -255.125 175.58203125 C-256.0182901 176.03310242 -256.0182901 176.03310242 -256.92962646 176.49328613 C-259.84441866 177.96631793 -262.75518233 179.44659938 -265.66113281 180.93701172 C-267.22879395 181.73196045 -267.22879395 181.73196045 -268.828125 182.54296875 C-269.7552832 183.01758545 -270.68244141 183.49220215 -271.63769531 183.98120117 C-274 185 -274 185 -277 185 C-279.55030094 179.94885942 -282.09532125 174.89510671 -284.63549805 169.83886719 C-285.50026364 168.11938953 -286.36646434 166.40063283 -287.23413086 164.68261719 C-288.48149119 162.21217257 -289.72365698 159.73917587 -290.96484375 157.265625 C-291.35341049 156.49881409 -291.74197723 155.73200317 -292.14231873 154.94195557 C-292.68276573 153.86128815 -292.68276573 153.86128815 -293.23413086 152.75878906 C-293.55167831 152.12813538 -293.86922577 151.49748169 -294.19639587 150.84771729 C-295.03431777 148.92109356 -295.54779944 147.04851192 -296 145 C-291.01076713 142.49270866 -286.02003172 139.98843844 -281.02807617 137.48657227 C-279.3418208 136.64098139 -277.65592904 135.79466488 -275.97045898 134.94750977 C-266.3706807 130.12313874 -256.74046844 125.37825608 -247.03515625 120.76953125 C-238.26549831 116.60064617 -229.55546381 112.31975285 -220.875 107.96875 C-220.26901033 107.66503794 -219.66302067 107.36132587 -219.03866768 107.04841042 C-214.69099506 104.8684909 -210.34528776 102.68466854 -206 100.5 C-201.04298871 98.00777688 -196.08515442 95.51721265 -191.125 93.03125 C-190.51741852 92.72669891 -189.90983704 92.42214783 -189.28384399 92.10836792 C-181.41492422 88.1675487 -173.51418694 84.3024829 -165.5625 80.53125 C-156.80093161 76.37543857 -148.10636163 72.09490884 -139.4375 67.75 C-138.80875977 67.43490982 -138.18001953 67.11981964 -137.53222656 66.79518127 C-133.02003779 64.53299849 -128.50981099 62.26691847 -124 60 C-118.85548315 57.41403791 -113.71016005 54.82970053 -108.5625 52.25 C-107.9327936 51.93439684 -107.3030872 51.61879368 -106.65429878 51.29362679 C-97.75399043 46.83670221 -88.80647329 42.4903484 -79.81260681 38.2250824 C-67.14068005 32.19491135 -54.61620788 25.86372008 -42.07330322 19.57098389 C-38.68569221 17.87198566 -35.29689496 16.17535679 -31.90820312 14.47851562 C-26.95518243 11.99807735 -22.00277719 9.51641775 -17.05102539 7.03344727 C-16.00278595 6.5097757 -14.95454651 5.98610413 -13.87454224 5.44656372 C-12.08245875 4.54472867 -10.29552798 3.6324874 -8.51681519 2.70455933 C-3.30660582 0 -3.30660582 0 0 0 Z " fill="#808080" transform="translate(417,88)"/>
<path d="M0 0 C0.99 0.33 1.98 0.66 3 1 C3 107.26 3 213.52 3 323 C-75.21 323 -153.42 323 -234 323 C-254 282 -254 282 -254 279 C-184.37 279 -114.74 279 -43 279 C-43.0928125 260.57800781 -43.185625 242.15601563 -43.28125 223.17578125 C-43.32210761 211.53189507 -43.36099705 199.88805277 -43.390625 188.24414062 C-43.40628831 182.12931142 -43.42245226 176.01448385 -43.43945312 169.8996582 C-43.44156312 169.13324959 -43.44367311 168.36684098 -43.44584703 167.57720786 C-43.48065499 155.19917408 -43.54373245 142.82143719 -43.61722237 130.44357953 C-43.69199808 117.74336453 -43.73646239 105.0433051 -43.75270796 92.342879 C-43.76369286 84.50393687 -43.79840234 76.66583345 -43.86333174 68.82714947 C-43.91056466 62.81936351 -43.91565111 56.81230109 -43.90486145 50.80430794 C-43.90706746 48.3375303 -43.92304911 45.87072173 -43.9536438 43.40413284 C-43.99331567 40.04158278 -43.98393359 36.68265228 -43.96203613 33.32002258 C-43.98533886 32.33850403 -44.0086416 31.35698547 -44.03265047 30.34572393 C-43.91880031 23.90067743 -43.91880031 23.90067743 -41.29575157 21.32936704 C-39.24296427 20.02033807 -37.22277006 18.98818943 -35 18 C-33.65962668 17.30079191 -32.3214416 16.59735469 -30.98657227 15.88769531 C-29.59851895 15.19713303 -28.20839371 14.51072238 -26.81640625 13.828125 C-25.70494484 13.27629547 -25.70494484 13.27629547 -24.57102966 12.71331787 C-22.23675575 11.55498813 -19.89984148 10.40212554 -17.5625 9.25 C-15.2005506 8.08283998 -12.83920528 6.91449564 -10.47898865 5.74383545 C-9.01773129 5.01933446 -7.55540995 4.2969747 -6.0919342 3.57696533 C-2.82902812 2.11222703 -2.82902812 2.11222703 0 0 Z " fill="#535150" transform="translate(359,177)"/>
<path d="M0 0 C0 79.2 0 158.4 0 240 C-68.31 240 -136.62 240 -207 240 C-217.33695652 219.32608696 -217.33695652 219.32608696 -222 209.75 C-222.87591797 207.97689453 -222.87591797 207.97689453 -223.76953125 206.16796875 C-224.31996094 205.03488281 -224.87039062 203.90179688 -225.4375 202.734375 C-226.17806641 201.22182129 -226.17806641 201.22182129 -226.93359375 199.67871094 C-228 197 -228 197 -228 193 C-167.28 193 -106.56 193 -44 193 C-44 136.57 -44 80.14 -44 22 C-37.73 18.7 -31.46 15.4 -25 12 C-22.75058594 10.81148437 -20.50117188 9.62296875 -18.18359375 8.3984375 C-16.26834213 7.39041033 -14.35298224 6.38258885 -12.4375 5.375 C-10.94573242 4.58416016 -10.94573242 4.58416016 -9.42382812 3.77734375 C-8.00553711 3.03291016 -8.00553711 3.03291016 -6.55859375 2.2734375 C-5.72642334 1.83435059 -4.89425293 1.39526367 -4.03686523 0.94287109 C-2 0 -2 0 0 0 Z " fill="#808080" transform="translate(306,205)"/>
<path d="M0 0 C1.32337404 2.3214441 2.45971054 4.57906917 3.5625 7.00390625 C4.07743263 8.10276909 4.07743263 8.10276909 4.60276794 9.22383118 C5.74462565 11.6657695 6.87203978 14.11411517 8 16.5625 C8.80363647 18.28649837 9.60842498 20.00996015 10.41430664 21.73291016 C12.10194538 25.34273257 13.7850401 28.95462351 15.46533203 32.56787109 C19.02172962 40.20363093 22.64331233 47.80824487 26.26535034 55.4130249 C27.83550843 58.71097418 29.40248249 62.010432 30.96949768 65.30987549 C34.29380054 72.30922667 37.62145658 79.30697803 40.95152283 86.30358887 C42.69468213 89.96637373 44.43699802 93.62955949 46.17922974 97.29278564 C47.00764155 99.03399552 47.83646783 100.77500828 48.66574097 102.51580811 C49.81856007 104.93582908 50.96996462 107.35651855 52.12109375 109.77734375 C52.62298218 110.829468 52.62298218 110.829468 53.13500977 111.90284729 C54.86795413 115.55091693 56.57128122 119.21211003 58.24243164 122.88891602 C58.57868057 123.62682877 58.9149295 124.36474152 59.2613678 125.12501526 C60 127 60 127 60 129 C109.83 129 159.66 129 211 129 C211 143.52 211 158.04 211 173 C151.6 173 92.2 173 31 173 C26.71 163.76 22.42 154.52 18 145 C15.27864195 139.24252442 12.55666095 133.4862084 9.81484985 127.73858643 C7.79775868 123.50958041 5.78572964 119.27816613 3.7734375 115.046875 C3.36960342 114.19787628 2.96576935 113.34887756 2.54969788 112.47415161 C-3.01530654 100.76890635 -8.52558405 89.03791573 -14.03625488 77.30702209 C-16.45643098 72.15526247 -18.87988087 67.00505037 -21.3046875 61.85546875 C-21.66252823 61.09544556 -22.02036896 60.33542236 -22.38905334 59.55236816 C-24.46978941 55.13306642 -24.46978941 55.13306642 -26.5508728 50.71392822 C-26.86754913 50.04150085 -27.18422546 49.36907349 -27.51049805 48.67626953 C-27.82189224 48.01542358 -28.13328644 47.35457764 -28.45411682 46.67370605 C-29.06472375 45.37517773 -29.67351576 44.07579425 -30.28038025 42.7755127 C-31.83425823 39.44952094 -33.41846039 36.14353469 -35.05419922 32.85693359 C-35.38499985 32.18055344 -35.71580048 31.50417328 -36.05662537 30.80729675 C-36.68581894 29.52191887 -37.32556771 28.24163313 -37.97767639 26.96772766 C-39.22492937 24.39444996 -39.98571204 22.21314015 -40.17749023 19.35229492 C-38.25958443 15.52085754 -34.89049592 14.34311287 -31.1328125 12.5390625 C-30.34228485 12.14423676 -29.5517572 11.74941101 -28.73727417 11.34262085 C-27.06525106 10.51230851 -25.38884087 9.69078098 -23.70849609 8.87744141 C-21.13183359 7.62831282 -18.57139099 6.34993208 -16.01171875 5.06640625 C-14.38629044 4.2638529 -12.76001505 3.4630124 -11.1328125 2.6640625 C-10.36397736 2.28085846 -9.59514221 1.89765442 -8.80300903 1.50283813 C-3.34756081 -1.1158536 -3.34756081 -1.1158536 0 0 Z " fill="#535150" transform="translate(40,215)"/>
<path d="M0 0 C16.95702209 34.61832029 16.95702209 34.61832029 24.625 51.25 C31.89182845 66.92355155 39.46285256 82.45463341 47 98 C84.95 98.33 122.9 98.66 162 99 C162 113.52 162 128.04 162 143 C114.48 143 66.96 143 18 143 C8.81322213 124.62644427 8.81322213 124.62644427 5.73046875 118.09375 C5.19231033 116.95897972 5.19231033 116.95897972 4.64328003 115.80128479 C3.48982229 113.36824518 2.33867034 110.93412257 1.1875 108.5 C0.36338389 106.76089911 -0.46092043 105.02188741 -1.28540039 103.28295898 C-2.99668617 99.67320879 -4.70717243 96.06308154 -6.41699219 92.45263672 C-10.18250966 84.50236256 -13.95497116 76.55538844 -17.72869873 68.60900879 C-18.92766762 66.08321328 -20.12532087 63.55679736 -21.32275391 61.03027344 C-24.80155105 53.69498948 -28.29415105 46.36794529 -31.859375 39.07421875 C-32.42922119 37.90431396 -32.99906738 36.73440918 -33.58618164 35.52905273 C-34.61754243 33.41711391 -35.65530262 31.30828216 -36.70092773 29.20336914 C-37.14380127 28.29578857 -37.5866748 27.38820801 -38.04296875 26.453125 C-38.42477295 25.68129883 -38.80657715 24.90947266 -39.19995117 24.11425781 C-40 22 -40 22 -40 18 C-34.95142437 15.426276 -29.89768438 12.86310528 -24.83886719 10.30957031 C-23.11865565 9.43940672 -21.39989105 8.56637653 -19.68261719 7.69042969 C-17.21403766 6.43188221 -14.74043886 5.18373411 -12.265625 3.9375 C-11.49881409 3.54377197 -10.73200317 3.15004395 -9.94195557 2.74438477 C-9.22151062 2.38401123 -8.50106567 2.0236377 -7.75878906 1.65234375 C-7.12813538 1.33257568 -6.49748169 1.01280762 -5.84771729 0.68334961 C-4 0 -4 0 0 0 Z " fill="#808080" transform="translate(89,190)"/>
</svg>
